<?xml version="1.0" encoding="UTF-8"?>
<svg width="100" height="60" viewBox="0 0 24 30" fill="none" xmlns="http://www.w3.org/2000/svg">
  <path d="M18.71 19.5c-.83 1.24-1.62 2.39-2.92 2.39-1.3 0-1.66-.79-3.08-.79-1.42 0-1.83.79-3.08.79-1.3 0-2.17-1.23-2.92-2.39-1.7-2.52-2.92-7.1-1.2-10.22.87-1.57 2.24-2.46 3.81-2.46 1.3 0 2.53.81 3.39.81.86 0 2.24-.85 3.79-.7.65.03 2.48.26 3.66 1.98-3.06 1.85-2.61 6.64.51 7.9-.63 1.5-1.47 2.98-2.84 2.98zM12.5 7.5c0-1.5 1.3-3.3 3.5-3.3.18 0 .34.01.5.02-.21 1.1-.9 2.08-1.7 2.77-.75.64-1.3 1.51-1.3 2.51z" fill="#000"/>
</svg>
