<?xml version="1.0" encoding="UTF-8"?>
<svg width="100" height="60" viewBox="0 0 69 26" fill="none" xmlns="http://www.w3.org/2000/svg">
  <path d="M68.052 25.063c-2.24 0-4.48-.64-6.08-1.92l-6.72-5.12-2.56 3.2 6.72 5.12c2.56 1.92 6.4 1.92 8.96 0 2.56-1.92 2.56-5.12 0-7.04-1.28-1.28-2.56-1.92-4.48-1.92-1.92 0-3.2.64-4.48 1.92l-1.28-1.28c1.28-1.92 3.84-3.2 6.4-3.2 2.56 0 4.48.64 6.4 1.92 3.2 2.56 3.2 7.04 0 9.6-1.28 1.92-3.84 2.56-5.76 2.56z" fill="#111"/>
  <path d="M45.812 25.063c-5.12 0-8.96-3.84-8.96-8.96s3.84-8.96 8.96-8.96c2.56 0 4.48.64 6.4 1.92l-1.92 2.56c-1.28-.64-2.56-1.28-4.48-1.28-3.84 0-6.4 2.56-6.4 6.4s2.56 6.4 6.4 6.4c1.92 0 3.2-.64 4.48-1.28l1.92 2.56c-1.92 1.28-3.84 1.92-6.4 1.92z" fill="#111"/>
  <path d="M33.092 25.063c-1.92 0-3.84-.64-5.12-1.92-2.56-2.56-2.56-7.04 0-9.6 1.28-1.92 3.84-3.2 5.76-3.2 1.92 0 3.2.64 4.48 1.92l1.28-1.28c-1.28-1.28-3.2-2.56-5.12-2.56-2.56 0-4.48.64-6.4 1.92-3.2 2.56-3.2 7.04 0 9.6 1.92 1.92 4.48 2.56 6.4 2.56 1.92 0 3.84-.64 5.12-1.28l-1.28-1.92c-1.28.64-2.56 1.28-4.48 1.28z" fill="#111"/>
  <path d="M20.372 7.143h-3.2v17.92h3.2V7.143z" fill="#111"/>
  <path d="M7.652 7.143h-3.2v17.92h3.2V7.143z" fill="#111"/>
  <path d="M0 25.063h3.2V7.143H0v17.92z" fill="#111"/>
</svg>
